<svg viewBox="0 0 30 33" fill="var(--color0, #0089ff)" width="29.090909" height="32" xmlns="http://www.w3.org/2000/svg" xmlns:xlink="http://www.w3.org/1999/xlink">
    <style>
        :root, .palette0 {color: currentColor;
            --color0: #0089ff;
            --color1: #2a40ff;
            --color2: #67db1a;
            --color3: #ff7903;
            --color4: #ff0303;
            --color5: #fff;
            --color6: #de8080;
            --color7: #eaeaea;
            --color8: #7a7a7a;
        }
    </style>
    <path d="M27.3755 11.8039h-0.7924V7.9806c0-0.0241-37e-4-0.0479-69e-4-0.0723-13e-4-0.1518-0.0497-0.3009-0.1536-0.4189l-6.3624-7.2682c-2e-3-19e-4-39e-4-25e-4-52e-4-44e-4-0.0379-0.0424-0.0821-0.0778-0.1289-0.1081-0.0138-95e-4-0.0278-0.0172-0.0423-0.0252-0.0404-0.022-0.0835-0.0405-0.1277-0.0538-0.012-31e-4-0.0228-8e-3-0.0347-0.0113C19.6733 71e-4 19.6234 0 19.5729 0H3.9361C3.2221 0 2.642 0.5807 2.642 1.2941l0 10.5095H1.8497C0.8282 11.8036 0 12.6315 0 13.6531v9.6185c0 1.0211 0.8282 1.8499 1.8497 1.8499H2.642l0 6.5844c0 0.7135 0.58 1.2941 1.294 1.2941h21.353c0.7134 0 1.294-0.5806 1.294-1.2941v-6.5843h0.7925c1.0211 0 1.8495-0.8284 1.8495-1.8496v-9.6185c0-1.0216-0.8283-1.8496-1.8495-1.8496zM3.9361 1.2944l14.9898 0v6.621c0 0.3575 0.2899 0.6471 0.647 0.6471l5.7161 0v3.2417H3.9361zM20.2341 20.2136c0.472 0 0.9959-0.1023 1.304-0.2262l0.2357 1.2218c-0.287 0.143-0.9334 0.2979-1.7751 0.2979-2.3923 0-3.6235-1.4884-3.6235-3.4591 0-2.3609 1.6834-3.6747 3.7775-3.6747 0.8104 0 1.4267 0.1648 1.7039 0.3081l-0.3181 1.2423c-0.3182-0.134-0.7593-0.2566-1.314-0.2566-1.2424 0-2.2067 0.749-2.2067 2.2887-3e-4 1.3845 0.8209 2.2578 2.2163 2.2578zM15.6659 17.8737c0 2.2682-1.3755 3.6436-3.3972 3.6436-2.0532 0-3.2541-1.5504-3.2541-3.5207 0-2.0732 1.3238-3.6236 3.3669-3.6236 2.1254 0 3.2844 1.5915 3.2844 3.5007zM2.1884 21.3739v-6.7953c0.5749-0.0922 1.324-0.143 2.1144-0.143 1.3138 0 2.1656 0.2357 2.8321 0.7389 0.7189 0.5334 1.1709 1.3855 1.1709 2.6067 0 1.3238-0.4825 2.2378-1.1499 2.8021-0.7289 0.6054-1.8373 0.8932-3.1926 0.8932-0.8102-3e-4-1.385-0.0518-1.7749-0.1026zM25.289 31.3555H3.9361l-1e-4-6.2339h21.353v6.2339zM26.4754 21.4041 25.8489 20.152c-0.2566-0.4822-0.4208-0.842-0.6158-1.242h-0.0206c-0.1437 0.4006-0.3178 0.7598-0.5333 1.242l-0.5749 1.2521h-1.7861l2.0015-3.5003-1.9292-3.4178h1.7965l0.6054 1.263c0.2054 0.42 0.3589 0.7592 0.5232 1.149h0.0202c0.1642-0.4412 0.2982-0.749 0.472-1.149l0.5851-1.263h1.7865l-1.9504 3.3767 2.0527 3.5414z" />
    <path d="M6.6428 17.832c0.01-1.4366-0.8314-2.1964-2.1757-2.1964-0.3495 0-0.5749 0.0309-0.7086 0.0618l0 4.526c0.134 0.0307 0.3495 0.0307 0.5446 0.0307 1.4164 0.0107 2.3397-0.769 2.3397-2.4221z" />
    <path d="M10.6677 17.9654c0 1.3551 0.6365 2.3095 1.6834 2.3095 1.0573 0 1.6622-1.0053 1.6622-2.35 0-1.2423-0.595-2.3098-1.6733-2.3098-1.057 3e-4-1.6723 1.0063-1.6723 2.3503z" />
</svg>