<svg viewBox="0 0 30 34" fill="none" width="28.235294" height="32" xmlns="http://www.w3.org/2000/svg" xmlns:xlink="http://www.w3.org/1999/xlink">
    <style>
        :root, .palette0 {color: currentColor;
            --color0: #0089ff;
            --color1: #2a40ff;
            --color2: #67db1a;
            --color3: #ff7903;
            --color4: #ff0303;
            --color5: #fff;
            --color6: #de8080;
            --color7: #eaeaea;
            --color8: #7a7a7a;
        }
    </style>
    <path fill="var(--color1, #2a40ff)" d="M27.5344 11.8828h-0.8016V8.0297c0-0.0281 0-0.0422 0-0.0703 0-0.1547-0.0562-0.2953-0.1547-0.4219L20.1797 0.225c-0.0422-0.0422-0.0844-0.0844-0.1266-0.1125-0.014-0.0141-0.0281-0.0141-0.0422-0.0281-0.0421-0.0281-0.0843-0.0422-0.1265-0.0563-0.0141 0-0.0282 0-0.0282-0.014C19.8141 0 19.7578 0 19.7016 0h-15.75C3.2344 0 2.6578 0.5766 2.6578 1.2938l0 10.575H1.8563C0.8297 11.8688 0 12.6984 0 13.725V23.4c0 1.0266 0.8297 1.8563 1.8563 1.8563h0.8015l0 6.6234c0 0.7172 0.5766 1.2937 1.2938 1.2937H25.425c0.7172 0 1.2938-0.5765 1.2938-1.2937v-6.6234h0.8015c1.0266 0 1.8563-0.8297 1.8563-1.8563v-9.675c0.014-1.0125-0.8157-1.8422-1.8422-1.8422zM3.9516 1.3078l15.075 0v6.6656c0 0.3657 0.2953 0.6469 0.6468 0.6469l5.7516 0v3.2625H3.9516zM22.5984 21.9375h-1.575l-0.0984-2.7984c-0.0281-0.886-0.0703-1.9407-0.0703-3.0094h-0.0281c-0.225 0.9281-0.5204 1.9687-0.7875 2.8406l-0.8579 2.8547h-1.2515l-0.7594-2.8266c-0.239-0.8578-0.4781-1.8984-0.6469-2.8547h-0.014c-0.0422 0.9844-0.0703 2.1235-0.1266 3.0235l-0.1265 2.7844h-1.4907l0.45-7.3125h2.1375l0.7031 2.4468c0.225 0.8438 0.4501 1.7579 0.6047 2.6157h0.0282c0.1968-0.8438 0.45-1.8141 0.675-2.6297l0.7593-2.4328h2.1094zM8.6063 16.0172l-1e-4-1.3922h5.4704v1.3922h-1.9407v5.9344h-1.6171v-5.9344zM3.4875 18.8859v3.0657H1.8703l0-7.3125h1.6172v2.8125h2.6578l0-2.8125h1.6031l0 7.3125H6.1453l0-3.0657zM25.4391 31.5422H3.9516l0-6.2719H25.425zM28.2797 21.9375h-4.4438V14.625h1.6172v5.9344h2.8266z" />
</svg>