<svg viewBox="0 0 30 34" fill="none" width="28.235294" height="32" xmlns="http://www.w3.org/2000/svg" xmlns:xlink="http://www.w3.org/1999/xlink">
    <style>
        :root, .palette0 {color: currentColor;
            --color0: #0089ff;
            --color1: #2a40ff;
            --color2: #67db1a;
            --color3: #ff7903;
            --color4: #ff0303;
            --color5: #fff;
            --color6: #de8080;
            --color7: #eaeaea;
            --color8: #7a7a7a;
        }
    </style>
    <path fill="var(--color2, #67db1a)" d="M27.5199 11.8765h-0.8012V8.0255c0-0.0282 0-0.0422 0-0.0703 0-0.1546-0.0562-0.2952-0.1546-0.4217L20.169 0.2249c-0.0421-0.0422-0.0843-0.0843-0.1264-0.1125-0.0141-0.014-0.0282-0.014-0.0422-0.0281-0.0422-0.0281-0.0843-0.0421-0.1265-0.0562-0.0141 0-0.0281 0-0.0281-0.014C19.8036 0 19.7474 0 19.6912 0H3.9495C3.2327 0 2.6564 0.5763 2.6564 1.2931l0 10.5694H1.8553C0.8293 11.8625 0 12.6917 0 13.7178v9.6699c0 1.026 0.8293 1.8552 1.8553 1.8552h0.8011l0 6.62c0 0.7168 0.5763 1.3071 1.2931 1.3071h21.4621c0.7168 0 1.2931-0.5763 1.2931-1.3071v-6.62h0.8011c1.026 0 1.8553-0.8292 1.8553-1.8552v-9.6699c0.014-1.012-0.8152-1.8413-1.8412-1.8413zM3.9495 1.3071l15.067 0v6.6621c0 0.3655 0.2952 0.6466 0.6466 0.6466l5.7485 0v3.2607H3.9495zM17.1331 19.0446c-1.279-0.4497-2.1082-1.1525-2.1082-2.2769 0-1.3071 1.0963-2.3191 2.9094-2.3191 0.8714 0 1.5039 0.1827 1.9677 0.3936l-0.3935 1.4055c-0.3093-0.1546-0.8574-0.3655-1.6023-0.3655s-1.1104 0.3374-1.1104 0.745c0 0.4919 0.4357 0.7027 1.4196 1.0822 1.3633 0.506 1.9958 1.2087 1.9958 2.291 0 1.2931-0.9979 2.3893-3.1062 2.3893-0.8854 0-1.7428-0.2248-2.1785-0.4638l0.3514-1.4336c0.4638 0.2389 1.1947 0.4779 1.9255 0.4779 0.8012 0 1.2228-0.3373 1.2228-0.8293 0-0.4919-0.3654-0.7589-1.2931-1.0963zM14.1956 20.8156v1.4617H9.3888v-7.7022h1.7428v6.2405zM3.7949 22.2773H1.8131l2.2207-3.8932-2.1504-3.7949h1.9958l0.6746 1.4055c0.2249 0.4638 0.3936 0.8433 0.5763 1.279h0.0281c0.1827-0.4919 0.3373-0.8293 0.5201-1.279l0.6465-1.4055h1.9818l-2.1645 3.7527 2.291 3.9354H6.4372l-0.7027-1.3914c-0.2811-0.5341-0.4638-0.9277-0.6887-1.3774H5.0177c-0.1546 0.4497-0.3514 0.8433-0.5904 1.3774zM25.4256 31.5256H3.9495l0-6.2686h21.4621zM25.4397 22.2773l-0.7028-1.3914c-0.2811-0.5341-0.4638-0.9277-0.6887-1.3774h-0.0281c-0.1546 0.4497-0.3513 0.8433-0.5903 1.3774l-0.6465 1.3914h-1.9818l2.2207-3.8932-2.1504-3.7949h1.9958l0.6747 1.4055c0.2248 0.4638 0.3935 0.8433 0.5762 1.279h0.0281c0.1827-0.4919 0.3374-0.8293 0.5201-1.279l0.6465-1.4055h1.9818l-2.1645 3.7527 2.2769 3.9354z" />
</svg>