<svg viewBox="0 0 30 34" fill="none" width="28.235294" height="32" xmlns="http://www.w3.org/2000/svg" xmlns:xlink="http://www.w3.org/1999/xlink">
    <style>
        :root, .palette0 {color: currentColor;
            --color0: #0089ff;
            --color1: #2a40ff;
            --color2: #67db1a;
            --color3: #ff7903;
            --color4: #ff0303;
            --color5: #fff;
            --color6: #de8080;
            --color7: #eaeaea;
            --color8: #7a7a7a;
        }
    </style>
    <path fill="var(--color3, #ff7903)" d="M27.5344 11.8828h-0.8016V8.0297c0-0.0281 0-0.0422 0-0.0703 0-0.1547-0.0562-0.2953-0.1547-0.4219L20.1797 0.225c-0.0422-0.0422-0.0844-0.0844-0.1266-0.1125-0.014-0.0141-0.0281-0.0141-0.0422-0.0281-0.0421-0.0281-0.0843-0.0422-0.1265-0.0563-0.0141 0-0.0282 0-0.0282-0.014C19.8141 0 19.7578 0 19.7016 0h-15.75C3.2344 0 2.6578 0.5766 2.6578 1.2938l0 10.575H1.8563C0.8297 11.8688 0 12.6984 0 13.725V23.4c0 1.0266 0.8297 1.8563 1.8563 1.8563h0.8015l0 6.6234c0 0.7172 0.5766 1.2937 1.2938 1.2937H25.425c0.7172 0 1.2938-0.5765 1.2938-1.2937v-6.6234h0.8015c1.0266 0 1.8563-0.8297 1.8563-1.8563v-9.675c0.014-1.0125-0.8157-1.8422-1.8422-1.8422zM3.9516 1.3078l15.075 0v6.6656c0 0.3657 0.2953 0.6469 0.6468 0.6469l5.7516 0v3.2625H3.9516zM20.3625 22.5844h-1.9266l-0.1265-3.3469c-0.0422-1.0547-0.0844-2.3203-0.0844-3.6h-0.0422C17.9156 16.7484 17.55 18 17.2125 19.0266l-1.0687 3.4172h-1.5469l-0.9282-3.3891c-0.2812-1.0266-0.5765-2.2641-0.7875-3.4172h-0.014c-0.0563 1.1813-0.0984 2.5313-0.1547 3.6141l-0.1547 3.3187h-1.8281l0.5625-8.7469h2.6297l0.8578 2.925c0.2672 1.0125 0.5484 2.0954 0.7453 3.1219h0.0422c0.2531-1.0125 0.5484-2.1656 0.8297-3.1359l0.9281-2.911h2.5734zM2.3203 22.5844l2.5313-4.4297-2.4328-4.3172h2.264l0.7594 1.5891c0.2672 0.5343 0.45 0.9562 0.6609 1.4484h0.0281c0.211-0.5625 0.3797-0.9422 0.5907-1.4484l0.7453-1.5891h2.25l-2.461 4.2609 2.6016 4.4719H7.5656l-0.7875-1.575c-0.3234-0.6047-0.5343-1.0687-0.7734-1.575H5.9766c-0.1829 0.5063-0.4079 0.9563-0.675 1.575l-0.7313 1.5891zM25.4391 31.5422H3.9516l0-6.2719H25.425zM27.3516 22.5844h-5.4563v-8.7469h1.9828v7.0875h3.4735z" />
</svg>