<svg viewBox="0 0 33 33" fill="var(--color5, #fff)" width="32" height="32" xmlns="http://www.w3.org/2000/svg" xmlns:xlink="http://www.w3.org/1999/xlink">
    <style>
        :root, .palette0 {color: currentColor;
            --color0: #0089ff;
            --color1: #2a40ff;
            --color2: #67db1a;
            --color3: #ff7903;
            --color4: #ff0303;
            --color5: #fff;
            --color6: #de8080;
            --color7: #eaeaea;
            --color8: #7a7a7a;
        }
    </style>
    <path fill="var(--color8, #7a7a7a)" d="M32.9914 15.0825c-39e-4-0.0624-0.0161-0.1225-0.0367-0.1816-77e-4-0.022-0.0132-0.0436-0.023-0.0646-0.0331-0.0712-0.0749-0.1387-0.1323-0.1964-4e-4-3e-4-7e-4-9e-4-7e-4-9e-4l-3.9237-3.9237V6.875c0-0.0149-76e-4-0.0283-86e-4-0.0433-38e-4-0.0606-0.0156-0.119-0.0352-0.1767-75e-4-0.022-0.0132-0.0435-0.023-0.0647-0.0334-0.0731-0.0756-0.1425-0.1346-0.2014l-6.1875-6.1875c-0.0592-0.0592-0.1287-0.1015-0.202-0.135-0.0205-94e-4-0.0412-0.015-0.0625-0.0222-0.0588-0.0204-0.1186-0.0323-0.1806-0.0361C22.0269 72e-4 22.0142 0 22 0H4.8125C4.4328 0 4.125 0.3078 4.125 0.6875v10.0278l-3.9234 3.9234c0 0-6e-4 9e-4-1e-3 12e-4-0.0574 0.0577-0.0992 0.1252-0.1323 0.1964-98e-4 0.021-0.0154 0.0426-0.0231 0.0646-0.0206 0.0591-0.0328 0.1192-0.0367 0.1816C76e-4 15.0974 0 15.1099 0 15.125v13.0625c0 0.3797 0.3078 0.6875 0.6875 0.6875H4.125v3.4375C4.125 32.6922 4.4328 33 4.8125 33h23.375c0.3797 0 0.6876-0.3078 0.6876-0.6875V28.875h3.4374c0.3797 0 0.6876-0.3078 0.6876-0.6875V15.125c-1e-4-0.0151-77e-4-0.0276-87e-4-0.0425z" />
    <path fill="var(--color7, #eaeaea)" d="M30.6528 14.4375H28.875v-1.7778z" />
    <path d="M26.5278 6.1875l-3.8403 0V2.3472z" />
    <path d="M5.5 1.375h15.8125v5.5c0 0.3797 0.3078 0.6875 0.6875 0.6875h5.5V11v3.4375h-22V11z" />
    <path fill="var(--color7, #eaeaea)" d="M4.125 12.6597l0 1.7778H2.3472z" />
    <path d="M27.5 28.875h-22v2.75h22z" />
    <path fill="var(--color6, #de8080)" d="M31.625 27.5H1.375V15.8125h3.4375 23.375 3.4375z" />
    <path d="M10.0252 18.0891h2.5946L9.8381 23.968l0 1.157h4.3245v-1.2623h-2.77l2.77-5.8788v-1.1337h-4.1374z" />
    <path d="M16.8268 16.851h-1.4025v8.274h1.4025z" />
    <path d="M22.3732 17.37c-0.222-0.1904-0.4734-0.3253-0.7538-0.4029-0.2805-0.0777-0.5533-0.1169-0.8181-0.1169h-2.2908v8.2748h1.3791v-3.3193h0.9818c0.2883 0 0.5688-0.0509 0.8415-0.1519 0.2727-0.1011 0.5142-0.2572 0.7246-0.4676 0.2104-0.2103 0.3799-0.473 0.5084-0.7892 0.1286-0.3156 0.1928-0.6834 0.1928-1.1041 0-0.4675-0.072-0.8573-0.2162-1.1688-0.1442-0.3113-0.3272-0.563-0.5493-0.7541z" />
    <path fill="var(--color4, #ff0303)" d="M21.4906 20.3159c-0.2104 0.2296-0.4792 0.3445-0.8064 0.3445h-0.7948v-2.6296h0.7948c0.3273 0 0.596 0.101 0.8064 0.3039 0.2104 0.2027 0.3156 0.5258 0.3156 0.97 0 0.4441-0.1053 0.781-0.3156 1.0112z" />
</svg>