<svg width="20" height="20" viewBox="0 0 20 20" fill="none" xmlns="http://www.w3.org/2000/svg">
<path d="M7.61877 1.20339V2.40678L8.00861 2.79661L8.39844 3.18644V1.98305V0.779661L11.3984 0.788135L14.3985 0.79661L14.4069 3.18644L14.4154 5.58474L16.8137 5.59322L19.2036 5.60169V10.7966V15.9915L16.2035 16L13.2035 16.0085V16.3983V16.7881H16.6018H20.0002V10.8983V5.01695L17.4917 2.50847L14.9832 0H11.2968H7.61877V1.20339ZM16.9324 3.08475L18.6527 4.80508H16.9239H15.1951V3.08475C15.1951 2.13559 15.1951 1.36441 15.2035 1.36441C15.212 1.36441 15.9917 2.14407 16.9324 3.08475Z" fill="#0087FC"/>
<path d="M0 11.6017V20H6.19493H12.3899V14.1101V8.22032L9.88138 5.71184L7.36443 3.20337H3.67798H0V11.6017ZM6.79663 6.38981V8.78811H9.19494H11.5933V14V19.2118L6.19493 19.2034L0.796612 19.1949L0.788138 11.6356C0.788138 7.48303 0.788138 4.05083 0.796612 4.0254C0.805087 3.9915 1.44916 3.97456 3.8051 3.97456H6.79663V6.38981ZM9.33901 6.30506L11.0339 7.99998H9.32206H7.61867V6.30506C7.61867 5.37286 7.61867 4.60167 7.62714 4.60167C7.63561 4.61015 8.39833 5.37286 9.33901 6.30506Z" fill="#0087FC"/>
</svg>
