<svg width="18" height="20" viewBox="0 0 18 20" fill="none" xmlns="http://www.w3.org/2000/svg">
<path d="M2.61011 1.05085V2.10169H6.11858H9.61858L10.6355 3.11864C11.1949 3.67797 11.661 4.13559 11.6779 4.13559C11.6949 4.13559 11.7118 3.20339 11.7118 2.0678V0H7.16095H2.61011V1.05085Z" fill="#0087FC"/>
<path d="M12.1102 2.3136V4.59326L12.7119 5.18648L13.3136 5.7797H15.6018H17.8814L15.0085 2.90682C13.4323 1.33055 12.1357 0.0339355 12.1272 0.0339355C12.1102 0.0424101 12.1102 1.05936 12.1102 2.3136Z" fill="#0087FC"/>
<path d="M0 11.2712V20H7.61864H15.2373V14.339V8.67795H12.1695H9.1017V5.60168V2.54236H4.55085H0V11.2712Z" fill="#0087FC"/>
<path d="M9.49158 5.44918V8.32206H12.3729H15.2543L12.3814 5.44918C10.8051 3.8729 9.50853 2.57629 9.50005 2.57629C9.49158 2.57629 9.49158 3.8729 9.49158 5.44918Z" fill="#0087FC"/>
<path d="M13.7034 6.16104C13.7034 6.17799 14.144 6.62715 14.6779 7.16104L15.6525 8.13562V12.7966V17.4577H16.7457H17.839V11.7966V6.13562H15.7712C14.644 6.13562 13.7034 6.14409 13.7034 6.16104Z" fill="#0087FC"/>
</svg>
