<svg preserveAspectRatio="none" width="100%" height="100%" overflow="visible" style="display: block;" viewBox="0 0 24.6638 21.9999" fill="none" xmlns="http://www.w3.org/2000/svg">
<g id="Group">
<path d="M21.0492 9.29718C20.9238 9.29718 20.7985 9.3912 20.7985 9.5479V18.9392C20.7985 20.3703 19.6389 21.5299 18.2078 21.5299H6.43473C5.00358 21.5299 3.84404 20.3703 3.84404 18.9392V9.5479C3.84404 9.42254 3.75002 9.29718 3.59332 9.29718C3.44707 9.29718 3.34261 9.3912 3.34261 9.5479V18.9392C3.34261 20.6419 4.72153 21.9999 6.40339 21.9999H18.1869C19.8896 21.9999 21.2476 20.621 21.2476 18.9392V9.5479C21.2999 9.3912 21.1745 9.29718 21.0492 9.29718Z" fill="#FF0303"/>
<path d="M9.91337 18.2184V12.8699C9.91337 12.7446 9.81935 12.6192 9.66266 12.6192C9.5373 12.6192 9.41195 12.7132 9.41195 12.8699V18.1976C9.41195 18.3229 9.50596 18.4483 9.66266 18.4483C9.78801 18.4483 9.91337 18.3438 9.91337 18.2184Z" fill="#FF0303"/>
<path d="M15.2619 18.2184V12.8699C15.2619 12.7446 15.1679 12.6192 15.0112 12.6192C14.8858 12.6192 14.7605 12.7132 14.7605 12.8699V18.1976C14.7605 18.3229 14.8545 18.4483 15.0112 18.4483C15.1574 18.4483 15.2619 18.3438 15.2619 18.2184Z" fill="#FF0303"/>
<path d="M24.4027 5.30674H16.8604V2.53846C16.8604 1.1282 15.7217 0 14.3219 0H10.3314C8.92118 0 7.79297 1.13865 7.79297 2.53846V5.2963H0.250712C0.125356 5.2963 0 5.39031 0 5.54701C0 5.69326 0.094017 5.79772 0.250712 5.79772H24.4131C24.5385 5.79772 24.6638 5.7037 24.6638 5.54701C24.6534 5.40076 24.5594 5.30674 24.4027 5.30674ZM16.3694 5.30674H8.28395V2.53846C8.28395 1.39981 9.19278 0.490978 10.3314 0.490978H14.3219C15.4606 0.490978 16.3694 1.39981 16.3694 2.53846V5.30674Z" fill="#FF0303"/>
</g>
</svg>
