<svg preserveAspectRatio="none" width="100%" height="100%" overflow="visible" style="display: block;" viewBox="0 0 29.3767 33.1734" fill="none" xmlns="http://www.w3.org/2000/svg">
<g id="Group">
<path id="Vector" d="M27.5344 11.8828H26.7328V8.02969C26.7328 8.00156 26.7328 7.9875 26.7328 7.95937C26.7328 7.80469 26.6766 7.66406 26.5781 7.5375L20.1797 0.225C20.1375 0.182813 20.0953 0.140625 20.0531 0.1125C20.0391 0.0984375 20.025 0.0984376 20.0109 0.0843751C19.9688 0.0562501 19.9266 0.0421876 19.8844 0.0281251C19.8703 0.0281251 19.8562 0.0281251 19.8562 0.0140626C19.8141 5.34346e-08 19.7578 0 19.7016 0H3.95156C3.23437 0 2.65781 0.576563 2.65781 1.29375V11.8688H1.85625C0.829688 11.8688 0 12.6984 0 13.725V23.4C0 24.4266 0.829688 25.2563 1.85625 25.2563H2.65781V31.8797C2.65781 32.5969 3.23437 33.1734 3.95156 33.1734H25.425C26.1422 33.1734 26.7188 32.5969 26.7188 31.8797V25.2563H27.5203C28.5469 25.2563 29.3766 24.4266 29.3766 23.4V13.725C29.3906 12.7125 28.5609 11.8828 27.5344 11.8828ZM3.95156 1.30781H19.0266V7.97344C19.0266 8.33906 19.3219 8.62031 19.6734 8.62031H25.425V11.8828H3.95156V1.30781ZM20.3625 22.5844H18.4359L18.3094 19.2375C18.2672 18.1828 18.225 16.9172 18.225 15.6375H18.1828C17.9156 16.7484 17.55 18 17.2125 19.0266L16.1438 22.4438H14.5969L13.6687 19.0547C13.3875 18.0281 13.0922 16.7906 12.8812 15.6375H12.8672C12.8109 16.8187 12.7688 18.1688 12.7125 19.2516L12.5578 22.5703H10.7297L11.2922 13.8234H13.9219L14.7797 16.7484C15.0469 17.7609 15.3281 18.8438 15.525 19.8703H15.5672C15.8203 18.8578 16.1156 17.7047 16.3969 16.7344L17.325 13.8234H19.8984L20.3625 22.5844ZM2.32031 22.5844L4.85156 18.1547L2.41875 13.8375H4.68281L5.44219 15.4266C5.70938 15.9609 5.89219 16.3828 6.10313 16.875H6.13125C6.34219 16.3125 6.51094 15.9328 6.72188 15.4266L7.46719 13.8375H9.71719L7.25625 18.0984L9.85781 22.5703H7.56563L6.77812 20.9953C6.45469 20.3906 6.24375 19.9266 6.00469 19.4203H5.97656C5.79375 19.9266 5.56875 20.3766 5.30156 20.9953L4.57031 22.5844H2.32031ZM25.4391 31.5422H3.95156V25.2703H25.425L25.4391 31.5422ZM27.3516 22.5844H21.8953V13.8375H23.8781V20.925H27.3516V22.5844Z" fill="var(--fill-0, #A8D889)"/>
</g>
</svg>
