<svg viewBox="0 0 23 23" fill="none" xmlns="http://www.w3.org/2000/svg">
  <path d="M22.0417 21.7971L15.8847 15.3724C17.3642 13.5189 18.1021 11.1416 17.9446 8.73496C17.7872 6.32832 16.7466 4.07765 15.0394 2.45117C13.3322 0.824694 11.0898 -0.0523753 8.77869 0.00242131C6.46755 0.0572179 4.26563 1.03966 2.63098 2.74538C0.996342 4.45109 0.0548338 6.74875 0.00232043 9.16037C-0.050193 11.572 0.790332 13.9119 2.34904 15.6933C3.90775 17.4748 6.06464 18.5605 8.371 18.7248C10.6774 18.8891 12.9556 18.1192 14.7319 16.5753L20.8889 23L22.0417 21.7971ZM1.65971 9.3884C1.65971 7.87408 2.09005 6.39377 2.8963 5.13466C3.70256 3.87555 4.84852 2.8942 6.18927 2.31469C7.53003 1.73519 9.00535 1.58356 10.4287 1.87899C11.852 2.17442 13.1594 2.90363 14.1856 3.97442C15.2118 5.0452 15.9106 6.40946 16.1937 7.89468C16.4769 9.3799 16.3315 10.9194 15.7762 12.3184C15.2208 13.7175 14.2804 14.9133 13.0737 15.7546C11.8671 16.5959 10.4484 17.0449 8.99722 17.0449C7.05185 17.0427 5.18678 16.2353 3.8112 14.7999C2.43562 13.3645 1.66187 11.4183 1.65971 9.3884Z" fill="#B0AB87"/>
</svg>
