<?xml version="1.0" encoding="UTF-8"?>
<svg xmlns="http://www.w3.org/2000/svg" viewBox="0 0 28 32">
<path d="M21.185078048706508 0.11907145709854564 C21.07507804870651 0.16907145709854565 20.95507804870651 0.2890714570985456 20.89507804870651 0.3690714570985456 C20.72507804870651 0.5990714570985456 15.485078048706509 9.589071457098546 15.37507804870651 9.829071457098546 C15.235078048706509 10.159071457098547 15.26507804870651 10.799071457098547 15.41507804870651 11.149071457098547 C15.61507804870651 11.599071457098546 15.94507804870651 11.859071457098546 16.39507804870651 11.899071457098547 C17.095078048706508 11.959071457098547 16.91507804870651 12.189071457098546 20.26507804870651 7.129071457098545 C21.90507804870651 4.649071457098546 23.295078048706507 2.5290714570985453 23.34507804870651 2.4090714570985456 C23.55507804870651 1.9290714570985457 23.365078048706508 1.0390714570985458 22.95507804870651 0.5390714570985456 C22.57507804870651 0.05907145709854563 21.63507804870651 -0.15092854290145435 21.185078048706508 0.11907145709854564 Z M21.685078048706508 0.6090714570985456 C21.87507804870651 0.7390714570985456 21.81507804870651 1.0190714570985457 21.44507804870651 1.6590714570985456 C21.06507804870651 2.3090714570985456 20.90507804870651 2.4390714570985454 20.71507804870651 2.2290714570985455 C20.545078048706507 2.0390714570985455 20.57507804870651 1.8690714570985458 20.80507804870651 1.4790714570985457 C21.365078048706508 0.5590714570985457 21.44507804870651 0.4690714570985456 21.685078048706508 0.6090714570985456 Z" fill="currentColor"/>
<path d="M1.51 3.603858453939976 C0.91 3.8038584539399762 0.4 4.323858453939976 0.13 5.033858453939977 L0 5.3738584539399765 L0 14.293858453939977 L0 23.213858453939974 L0.15 23.603858453939974 C0.33 24.063858453939975 0.59 24.403858453939975 0.93 24.693858453939974 C1.51 25.133858453939975 0.64 25.103858453939974 14.08 25.083858453939975 L26.26 25.073858453939977 L26.64 24.863858453939976 C27.12 24.593858453939976 27.44 24.193858453939974 27.67 23.623858453939974 L27.84 23.173858453939975 L27.84 14.293858453939977 L27.84 5.443858453939976 L27.67 4.993858453939976 C27.44 4.403858453939976 27.11 4.023858453939976 26.64 3.7538584539399764 L26.26 3.543858453939976 L25.02 3.503858453939976 L23.79 3.473858453939976 L23.25 4.2938584539399764 C22.94 4.743858453939976 22.71 5.133858453939976 22.71 5.143858453939976 C22.71 5.163858453939976 23.44 5.183858453939976 24.34 5.183858453939976 C25.78 5.183858453939976 25.98 5.203858453939977 26.13 5.303858453939976 C26.49 5.553858453939976 26.46 5.133858453939976 26.46 13.313858453939977 L26.46 20.783858453939974 L13.93 20.783858453939974 L1.39 20.783858453939974 L1.39 13.303858453939977 C1.39 5.073858453939976 1.38 5.523858453939976 1.74 5.303858453939976 C1.88 5.213858453939976 2.81 5.203858453939977 9.44 5.203858453939977 L17 5.203858453939977 L17.39 4.533858453939977 C17.6 4.163858453939976 17.82 3.783858453939976 17.88 3.683858453939976 L17.98 3.503858453939976 L9.9 3.503858453939976 C2.99 3.503858453939976 1.78 3.503858453939976 1.51 3.603858453939976 Z" fill="currentColor"/>
<path d="M13.504265136719205 12.19541327686173 C13.064265136719204 12.39541327686173 12.674265136719205 12.89541327686173 12.554265136719206 13.38541327686173 C12.534265136719204 13.52541327686173 12.494265136719205 13.91541327686173 12.494265136719205 14.255413276861729 C12.494265136719205 14.91541327686173 12.444265136719205 15.245413276861731 12.264265136719205 15.48541327686173 C12.144265136719206 15.64541327686173 11.834265136719205 15.80541327686173 11.564265136719206 15.88541327686173 C11.404265136719205 15.92541327686173 11.404265136719205 15.92541327686173 11.504265136719205 16.06541327686173 C11.814265136719206 16.465413276861728 12.544265136719204 16.645413276861728 13.454265136719204 16.53541327686173 C14.364265136719204 16.415413276861727 14.914265136719205 16.205413276861727 15.264265136719205 15.83541327686173 C16.134265136719204 14.91541327686173 15.814265136719204 12.94541327686173 14.684265136719205 12.29541327686173 C14.364265136719204 12.11541327686173 13.814265136719204 12.07541327686173 13.504265136719205 12.19541327686173 Z" fill="currentColor"/>
<path d="M11.606517066956021 26.328678543280184 C11.55651706695602 26.388678543280186 11.536517066956021 26.798678543280186 11.536517066956021 27.738678543280184 L11.536517066956021 29.048678543280186 L9.946517066956021 29.048678543280186 C8.676517066956022 29.048678543280186 8.346517066956022 29.068678543280186 8.246517066956022 29.148678543280184 C8.15651706695602 29.238678543280187 8.14651706695602 29.348678543280187 8.116517066956021 30.458678543280186 C8.106517066956021 31.458678543280186 8.116517066956021 31.688678543280187 8.186517066956021 31.828678543280184 L8.276517066956021 31.998678543280185 L13.936517066956021 31.998678543280185 C19.34651706695602 31.998678543280185 19.606517066956023 31.998678543280185 19.68651706695602 31.868678543280186 C19.76651706695602 31.758678543280183 19.786517066956023 31.558678543280184 19.786517066956023 30.538678543280184 C19.786517066956023 29.418678543280187 19.76651706695602 29.318678543280186 19.666517066956022 29.198678543280185 C19.55651706695602 29.068678543280186 19.47651706695602 29.048678543280186 17.98651706695602 29.048678543280186 L16.416517066956022 29.048678543280186 L16.40651706695602 27.768678543280185 C16.396517066956022 26.788678543280184 16.36651706695602 26.448678543280185 16.31651706695602 26.358678543280185 C16.23651706695602 26.258678543280187 16.00651706695602 26.248678543280185 13.946517066956021 26.248678543280185 C12.266517066956022 26.248678543280185 11.64651706695602 26.278678543280186 11.606517066956021 26.328678543280184 Z" fill="currentColor"/>
</svg>