<?xml version="1.0" encoding="UTF-8"?>
<svg xmlns="http://www.w3.org/2000/svg" viewBox="0 0 33 32">
<path d="M29.87130968231217 7.24 C28.491309682312167 9.6 26.78130968231217 11.79 24.991309682312167 13.9 C20.44130968231217 19.43 15.321309682312169 24.06 9.231309682312169 28.03 C8.981309682312169 28.19 8.671309682312168 28.43 8.421309682312168 28.59 C8.091309682312168 28.76 7.851309682312167 28.99 7.521309682312167 29.16 C10.13130968231217 30.95 13.21130968231217 32 16.62130968231217 32 C25.39130968231217 32 32.54130968231217 24.84 32.54130968231217 15.99 C32.54130968231217 12.75 31.57130968231217 9.75 29.87130968231217 7.24 Z M21.09130968231217 25.44 C20.521309682312168 25.44 20.03130968231217 24.95 20.03130968231217 24.38 C20.03130968231217 23.81 20.51130968231217 23.31 21.09130968231217 23.31 C21.651309682312167 23.31 22.151309682312167 23.8 22.151309682312167 24.38 C22.151309682312167 24.94 21.651309682312167 25.44 21.09130968231217 25.44 Z M30.35130968231217 6.42 C31.00130968231217 5.21 32.06130968231217 3.34 31.50130968231217 1.63 C31.17130968231217 0.81 30.60130968231217 0.41 30.201309682312168 0.25 C28.741309682312167 -0.23 26.80130968231217 0.98 26.46130968231217 1.23 C26.061309682312167 1.48 25.98130968231217 1.96 26.221309682312167 2.36 C26.46130968231217 2.76 26.951309682312168 2.84 27.361309682312168 2.61 C28.01130968231217 2.21 29.151309682312167 1.63 29.721309682312167 1.88 C29.80130968231217 1.88 29.881309682312168 1.96 29.971309682312167 2.21 C30.30130968231217 3.18 29.48130968231217 4.65 28.901309682312167 5.69 C28.901309682312167 5.69 28.901309682312167 5.78 28.82130968231217 5.78 C29.221309682312167 6.26 29.55130968231217 6.67 29.881309682312168 7.16 C30.021309682312168 6.91 30.19130968231217 6.74 30.35130968231217 6.42 Z M3.371309682312168 29.49 C2.811309682312168 29.66 2.1613096823121682 29.57 1.831309682312168 29.24 C1.5013096823121679 28.91 1.6613096823121678 28.43 1.7413096823121679 28.03 C2.231309682312168 26.88 2.871309682312168 25.75 3.371309682312168 25.11 C4.181309682312167 26.25 5.081309682312168 27.22 6.0513096823121675 28.11 C6.531309682312168 27.86 6.941309682312168 27.55 7.3413096823121675 27.22 C7.671309682312168 27.05 7.911309682312168 26.82 8.241309682312169 26.65 C14.251309682312169 22.75 19.28130968231217 18.28 23.68130968231217 12.84 C25.55130968231217 10.56 27.331309682312167 8.2 28.791309682312168 5.76 C25.87130968231217 2.27 21.491309682312167 0 16.521309682312168 0 C7.691309682312168 0 0.531309682312168 7.16 0.531309682312168 16.01 C0.531309682312168 18.76 1.261309682312168 21.37 2.4713096823121683 23.64 C2.1413096823121682 24.13 1.011309682312168 25.67 0.281309682312168 27.46 C-0.19869031768783202 28.61 -0.048690317687832024 29.66 0.611309682312168 30.39 C1.101309682312168 30.95 1.9113096823121678 31.28 2.811309682312168 31.28 C3.1413096823121682 31.28 3.541309682312168 31.2 3.871309682312168 31.12 C5.161309682312168 30.72 6.391309682312167 29.97 7.441309682312168 29.24 C6.961309682312168 28.91 6.541309682312168 28.59 6.061309682312167 28.18 C5.251309682312168 28.68 4.351309682312167 29.17 3.371309682312168 29.49 Z M14.011309682312168 5.45 C15.481309682312169 5.45 16.69130968231217 6.66 16.69130968231217 8.12 C16.69130968231217 9.58 15.481309682312169 10.8 14.011309682312168 10.8 C12.55130968231217 10.8 11.341309682312168 9.58 11.341309682312168 8.12 C11.341309682312168 6.66 12.55130968231217 5.45 14.011309682312168 5.45 Z M8.901309682312169 15.28 C9.71130968231217 15.28 10.441309682312168 15.92 10.441309682312168 16.82 C10.441309682312168 17.63 9.80130968231217 18.36 8.901309682312169 18.36 C8.091309682312168 18.28 7.361309682312168 17.63 7.361309682312168 16.82 C7.361309682312168 16.01 8.091309682312168 15.28 8.901309682312169 15.28 Z" fill="currentColor"/>
</svg>