<?xml version="1.0" encoding="UTF-8"?>
<svg xmlns="http://www.w3.org/2000/svg" viewBox="0 0 33 32">
<path d="M32.99 15.66 L32.99 14.44 L24.49 16.87 L17.67 14.92 L17.67 10.01 L27.48 6.01 L27.48 4.01 L13.74 8.01 L0 4.01 L0 6.01 L9.81 10.01 L9.81 18.01 L5.89 32 L7.86 32 L13.74 18.01 L19.63 32 L21.6 32 L21.22 30.64 L24.49 22.97 L28.14 31.5 L29.36 31.5 L26.93 22.97 L26.93 18.1 L32.99 15.66 Z M22.07 22.97 L20.55 28.28 L17.67 18.01 L17.67 16.34 L22.06 18.1 L22.07 22.97 Z M22.68 13.84 C22.68 14.85 23.49 15.67 24.49 15.67 C25.5 15.67 26.31 14.85 26.31 13.84 C26.31 12.83 25.5 12.01 24.49 12.01 C23.49 12.01 22.68 12.83 22.68 13.84 Z M13.74 6.01 C15.36 6.01 16.69 4.67 16.69 3.01 C16.69 1.34 15.38 0 13.74 0 C12.12 0 10.79 1.34 10.79 3.01 C10.81 4.67 12.12 6.01 13.74 6.01 Z" fill="currentColor"/>
</svg>