<?xml version="1.0" encoding="UTF-8"?>
<svg xmlns="http://www.w3.org/2000/svg" viewBox="0 0 36 32">
<path d="M34.62 0 L1.06 0 C0.47 0 0 0.45 0 1.01 L0 21.12 C0 21.68 0.47 22.13 1.06 22.13 L34.62 22.13 C35.2 22.13 35.67 21.68 35.67 21.12 L35.67 1.01 C35.67 0.45 35.2 0 34.62 0 Z M33.21 19.68 L2.46 19.68 L2.46 2.46 L33.21 2.46 L33.21 19.68 Z" fill="currentColor"/>
<path d="M18.456321716308594 14.768060684204102 L25.836321716308593 14.768060684204102 L25.836321716308593 15.988060684204102 L18.456321716308594 15.988060684204102 L18.456321716308594 14.768060684204102 Z" fill="currentColor"/>
<path d="M18.456321716308594 12.304189682006836 L29.516321716308596 12.304189682006836 L29.516321716308596 13.524189682006837 L18.456321716308594 13.524189682006837 L18.456321716308594 12.304189682006836 Z" fill="currentColor"/>
<path d="M18.456321716308594 4.912612438201904 L29.516321716308596 4.912612438201904 L29.516321716308596 7.372612438201904 L18.456321716308594 7.372612438201904 L18.456321716308594 4.912612438201904 Z" fill="currentColor"/>
<path d="M18.456321716308594 9.840354919433594 L29.516321716308596 9.840354919433594 L29.516321716308596 11.060354919433594 L18.456321716308594 11.060354919433594 L18.456321716308594 9.840354919433594 Z" fill="currentColor"/>
<path d="M9.842612438201904 14.767742958068848 C12.562612438201905 14.767742958068848 14.752612438201904 12.557742958068847 14.752612438201904 9.857742958068847 C14.752612438201904 7.137742958068848 12.542612438201903 4.927742958068848 9.842612438201904 4.927742958068848 C7.132612438201905 4.927742958068848 4.912612438201904 7.117742958068847 4.912612438201904 9.837742958068848 C4.912612438201904 12.557742958068847 7.122612438201904 14.767742958068848 9.842612438201904 14.767742958068848 Z M10.202612438201903 10.207742958068849 L14.392612438201905 10.207742958068849 C14.212612438201905 12.437742958068847 12.422612438201904 14.227742958068848 10.202612438201903 14.387742958068849 L10.202612438201903 10.207742958068849 Z" fill="currentColor"/>
<path d="M15.824067497253418 23.368932723999023 L9.674067497253418 31.98893272399902 L12.134067497253419 31.98893272399902 L17.214067497253417 24.878932723999025 L17.214067497253417 31.998932723999026 L19.684067497253416 31.998932723999026 L19.684067497253416 24.878932723999025 L24.764067497253418 31.998932723999026 L27.22406749725342 31.998932723999026 L21.074067497253417 23.388932723999023 L15.824067497253418 23.388932723999023 L15.824067497253418 23.368932723999023 Z" fill="currentColor"/>
</svg>