<?xml version="1.0" encoding="UTF-8"?>
<svg xmlns="http://www.w3.org/2000/svg" viewBox="0 0 33 32">
<path d="M4.329464025497373 0.07919608666508537 C3.1894640254975 0.35919608666508474 2.2494640254974456 1.3691960866650863 2.0494640254974 2.549196086665086 C1.719464025497473 4.459196086665086 3.5294640254974183 6.269196086665085 5.4394640254975 5.949196086665085 C7.069464025497382 5.6591960866650854 8.219464025497473 4.099196086665087 7.949464025497491 2.549196086665086 C7.6594640254975275 0.8391960866650852 5.969464025497473 -0.320803913334915 4.329464025497373 0.07919608666508537 Z" fill="currentColor"/>
<path d="M3.367047176360984 8.07606469704705 C2.7270471763611113 8.256064697047053 2.2070471763611295 8.796064697047052 2.0770471763610203 9.436064697047053 C2.017047176361075 9.64606469704705 2.007047176361084 11.696064697047051 2.007047176361084 15.87606469704705 L2.007047176361084 22.00606469704705 L6.007047176361084 22.00606469704705 L10.007047176361084 22.00606469704705 L10.017047176361075 26.306064697047056 C10.037047176361057 30.51606469704705 10.037047176361057 30.606064697047053 10.167047176361166 30.886064697047054 C10.357047176360993 31.29606469704705 10.657047176361175 31.606064697047053 11.057047176361039 31.79606469704705 C11.367047176360984 31.956064697047054 11.477047176361111 31.976064697047057 11.997047176361093 31.976064697047057 C12.527047176361066 31.976064697047057 12.637047176361193 31.956064697047054 12.947047176361139 31.79606469704705 C13.357047176360993 31.596064697047055 13.647047176361184 31.29606469704705 13.837047176361011 30.886064697047054 C13.96704717636112 30.606064697047053 13.96704717636112 30.566064697047054 13.96704717636112 25.00606469704706 L13.96704717636112 19.396064697047052 L13.787047176361057 19.04606469704705 C13.587047176361011 18.65606469704705 13.287047176361057 18.356064697047053 12.887047176361193 18.166064697047055 C12.597047176361002 18.04606469704705 12.507047176361084 18.036064697047053 9.307047176361039 18.01606469704705 L6.007047176361084 18.00606469704705 L6.007047176361084 17.01606469704705 L6.007047176361084 15.996064697047052 L8.507047176361084 15.996064697047052 L10.997047176361093 15.996064697047052 L10.997047176361093 16.496064697047053 L10.997047176361093 16.996064697047053 L16.507047176361084 16.996064697047053 L22.007047176361084 16.996064697047053 L22.007047176361084 23.996064697047053 L22.007047176361084 30.996064697047053 L21.007047176361084 30.996064697047053 L20.007047176361084 30.996064697047053 L20.007047176361084 31.496064697047053 L20.007047176361084 31.996064697047053 L22.497047176361093 31.996064697047053 L24.997047176361093 31.996064697047053 L24.997047176361093 31.496064697047053 L24.997047176361093 30.996064697047053 L24.007047176361084 30.996064697047053 L22.997047176361093 30.996064697047053 L22.997047176361093 23.996064697047053 L22.997047176361093 16.996064697047053 L27.497047176361093 16.996064697047053 L32.007047176361084 16.996064697047053 L32.007047176361084 16.496064697047053 L32.007047176361084 15.996064697047052 L26.997047176361093 15.996064697047052 L21.997047176361093 15.996064697047052 L21.997047176361093 11.996064697047052 L21.997047176361093 7.996064697047052 L21.497047176361093 7.996064697047052 L20.997047176361093 7.996064697047052 L20.997047176361093 11.496064697047052 L20.997047176361093 14.996064697047052 L17.997047176361093 14.996064697047052 L14.997047176361093 14.996064697047052 L14.997047176361093 15.496064697047052 L14.997047176361093 15.996064697047052 L13.667047176361166 15.996064697047052 C12.46704717636112 15.996064697047052 12.367047176360984 15.986064697047054 12.637047176361193 15.916064697047053 C13.537047176361057 15.676064697047051 14.07704717636102 14.80606469704705 13.96704717636112 13.75606469704705 C13.897047176361184 13.026064697047053 13.517047176361075 12.476064697047052 12.867047176360984 12.156064697047052 C12.587047176361011 12.03606469704705 12.487047176361102 12.026064697047053 9.287047176361057 12.00606469704705 L6.007047176361084 11.996064697047052 L5.977047176361111 10.706064697047053 C5.96704717636112 9.256064697047053 5.927047176361157 9.07606469704705 5.507047176361084 8.596064697047053 C5.067047176361029 8.106064697047051 4.097047176361002 7.856064697047051 3.367047176360984 8.07606469704705 Z" fill="currentColor"/>
<path d="M0 21.986584926386655 L0 31.996584926386653 L0.5 31.996584926386653 L1 31.996584926386653 L1 27.996584926386653 L1 23.996584926386653 L4.5 23.996584926386653 L8 23.996584926386653 L8 27.996584926386653 L8 31.996584926386653 L8.5 31.996584926386653 L9 31.996584926386653 L9 27.496584926386653 L9 22.996584926386653 L5 22.996584926386653 L1 22.996584926386653 L1 17.486584926386655 L1 11.996584926386651 L0.5 11.996584926386651 L0 11.996584926386651 L0 21.986584926386655 Z" fill="currentColor"/>
</svg>