<?xml version="1.0" encoding="UTF-8"?>
<svg xmlns="http://www.w3.org/2000/svg" viewBox="0 0 30 31">
<path d="M14.230816326530613 22.35 C14.230816326530613 19.26 15.800816326530613 16.55 18.190816326530612 14.95 C18.80081632653061 14.24 19.21081632653061 13.39 19.49081632653061 12.48 C20.95081632653061 12.19 21.08081632653061 9.93 21.08081632653061 9.93 C21.23081632653061 8.64 20.48081632653061 8.32 19.99081632653061 8.25 C19.93081632653061 2.88 18.06081632653061 0 12.810816326530613 0 C7.580816326530613 0 5.700816326530612 2.88 5.6408163265306115 8.25 C5.150816326530613 8.32 4.400816326530613 8.64 4.550816326530612 9.93 C4.550816326530612 9.93 4.680816326530612 12.19 6.1408163265306115 12.48 C6.430816326530612 13.4 6.850816326530612 14.27 7.490816326530613 15 C7.930816326530612 15.490000000000002 8.440816326530612 16.01 8.690816326530612 16.64 C9.060816326530613 17.56 8.850816326530612 18.69 8.440816326530612 19.55 C7.630816326530612 21.3 5.930816326530612 21.5 4.250816326530613 21.95 C3.4408163265306118 22.18 2.5808163265306123 22.38 1.8508163265306123 22.83 C0.4408163265306122 23.69 0.14081632653061238 25.3 0.04081632653061229 26.84 C-0.009183673469387754 27.75 0.0008163265306122547 27.07 0.0008163265306122547 27.92 C0.010816326530612264 28.34 0.16081632653061217 29.45 1.3808163265306121 29.74 C3.3308163265306123 30.16 7.240816326530613 30.6 12.800816326530613 30.6 C15.360816326530612 30.6 17.600816326530612 30.61 19.45081632653061 30.44 C16.38081632653061 29.08 14.230816326530613 25.96 14.230816326530613 22.35 Z" fill="currentColor"/>
<path d="M29.527205257805026 22.349999809265135 C29.527205257805026 25.889999809265134 26.667205257805023 28.749999809265137 23.127205257805024 28.749999809265137 C19.587205257805024 28.749999809265137 16.727205257805025 25.889999809265134 16.727205257805025 22.349999809265135 C16.727205257805025 18.809999809265136 19.587205257805024 15.949999809265137 23.127205257805024 15.949999809265137 C26.667205257805023 15.949999809265137 29.527205257805026 18.809999809265136 29.527205257805026 22.349999809265135 Z M26.937205257805026 21.489999809265136 L23.987205257805023 21.489999809265136 L23.987205257805023 18.539999809265137 C23.987205257805023 18.059999809265136 23.597205257805026 17.669999809265136 23.127205257805024 17.669999809265136 C22.647205257805027 17.669999809265136 22.267205257805024 18.059999809265136 22.267205257805024 18.539999809265137 L22.267205257805024 21.489999809265136 L19.317205257805025 21.489999809265136 C18.837205257805024 21.489999809265136 18.447205257805024 21.86999980926514 18.447205257805024 22.349999809265135 C18.447205257805024 22.819999809265138 18.837205257805024 23.209999809265135 19.317205257805025 23.209999809265135 L22.267205257805024 23.209999809265135 L22.267205257805024 26.159999809265138 C22.267205257805024 26.639999809265134 22.647205257805027 27.019999809265137 23.127205257805024 27.019999809265137 C23.597205257805026 27.019999809265137 23.987205257805023 26.639999809265134 23.987205257805023 26.159999809265138 L23.987205257805023 23.209999809265135 L26.937205257805026 23.209999809265135 C27.417205257805023 23.209999809265135 27.797205257805025 22.819999809265138 27.797205257805025 22.349999809265135 C27.797205257805025 21.86999980926514 27.417205257805023 21.489999809265136 26.937205257805026 21.489999809265136 Z" fill="currentColor"/>
</svg>