<?xml version="1.0" encoding="UTF-8"?>
<svg xmlns="http://www.w3.org/2000/svg" viewBox="0 0 415 300">
<path d="M0 152V4H414V300H0ZM114 258Q119 253 114 248L112 246H51L49 248Q48 250 47.5 252.5Q47 255 48.5 257.0Q50 259 54.5 259.5Q59 260 82 260H112ZM366 218V184H297V253H366ZM197 223Q199 221 199 218Q199 213 194.5 212.0Q190 211 121 212H51L49 214Q47 216 47.0 218.5Q47 221 49 223L51 225H196ZM196 190Q199 188 199.0 184.0Q199 180 197.5 178.5Q196 177 186 177H51L49 179Q47 182 47.5 185.0Q48 188 50.0 189.5Q52 191 123.0 191.0Q194 191 196 190ZM210 127Q220 124 229 116Q235 110 238.5 100.5Q242 91 241 83Q240 69 231.0 59.0Q222 49 208.5 46.0Q195 43 182.5 49.0Q170 55 163.0 67.5Q156 80 159.0 93.5Q162 107 170 115Q183 128 199 128Q205 128 210 127ZM279 119Q283 118 287 114Q293 108 297.5 108.0Q302 108 307 114Q315 121 325.0 121.0Q335 121 342 114Q347 108 351.5 107.5Q356 107 361.5 112.0Q367 117 372 112Q374 109 373.5 106.5Q373 104 369 101Q361 94 351.5 94.5Q342 95 334 102Q329 107 325.0 107.0Q321 107 315 102Q307 94 297.0 94.0Q287 94 279 102Q274 107 270.0 107.5Q266 108 262.0 104.5Q258 101 255.5 100.5Q253 100 250.5 103.0Q248 106 248.5 109.5Q249 113 254.0 116.5Q259 120 264 121Q267 122 271.5 121.5Q276 121 279 119ZM279 78Q283 76 287 72Q293 66 297.0 66.0Q301 66 307 72Q315 80 324.5 80.0Q334 80 343 72Q347 68 349 67Q355 65 360.5 70.0Q366 75 371 71Q373 68 373.0 66.0Q373 64 370.0 60.5Q367 57 363.5 55.0Q360 53 353.0 53.0Q346 53 343.0 54.5Q340 56 334 61L329 65Q327 65 324.5 65.0Q322 65 320.5 64.5Q319 64 315 60Q306 52 297 52Q292 52 288.0 54.0Q284 56 279.5 60.0Q275 64 273.5 64.5Q272 65 268.5 65.0Q265 65 261.5 62.5Q258 60 255.5 59.5Q253 59 250.0 61.5Q247 64 248.0 67.5Q249 71 254.0 74.5Q259 78 265.0 79.5Q271 81 279 78Z" fill="#62560E"/>
</svg>