<?xml version="1.0" encoding="UTF-8"?>
<svg xmlns="http://www.w3.org/2000/svg" viewBox="0 0 406 296">
<path d="M3 152V9H405V296H3ZM393 152V21H15V284H393ZM55 250V244H110V257H55ZM292 216V183H359V250H292ZM345 216V196H305V236H345ZM55 217V209H190V224H55ZM55 183V176H190V190H55ZM187 127Q174 123 166.0 113.5Q158 104 157 92Q156 84 159.5 75.0Q163 66 170 60Q182 48 197.5 48.5Q213 49 225.5 61.0Q238 73 237.5 89.0Q237 105 224 117Q217 125 207.0 128.0Q197 131 187 127ZM209 113Q219 108 222.5 97.0Q226 86 221 75Q217 68 208 64Q204 62 197.0 62.0Q190 62 186 64Q173 70 171 84Q169 91 171.5 97.5Q174 104 178.5 108.5Q183 113 187.0 114.0Q191 115 198.0 115.0Q205 115 209 113ZM257 120Q251 118 247.5 115.0Q244 112 244.0 109.5Q244 107 246.5 104.5Q249 102 250.5 102.0Q252 102 254.5 103.0Q257 104 257.0 105.0Q257 106 260.0 107.5Q263 109 265.5 109.0Q268 109 273 104Q280 98 288 97Q300 94 311 105Q315 109 318.5 109.0Q322 109 326.5 104.5Q331 100 334 99Q341 95 349.5 96.5Q358 98 362.5 103.5Q367 109 363.0 113.5Q359 118 353 112Q348 108 345.0 108.5Q342 109 337.0 113.5Q332 118 328.5 119.5Q325 121 319 121Q308 121 300 113Q295 109 291.5 109.0Q288 109 283.0 113.5Q278 118 274.5 119.5Q271 121 265.5 121.5Q260 122 257 120ZM259 81Q254 79 249.5 76.0Q245 73 244.5 70.0Q244 67 246.5 64.0Q249 61 251.5 61.5Q254 62 256 64Q260 69 264.0 69.0Q268 69 273 64Q282 56 291 56Q297 56 301.0 57.5Q305 59 310 64L315 68Q316 69 318.0 69.0Q320 69 322 68L327 64Q332 59 336.0 57.5Q340 56 346 56Q357 56 363 63Q368 69 364 73Q361 75 358.5 75.0Q356 75 352.0 71.5Q348 68 345.0 68.0Q342 68 337 74Q329 81 319.0 81.0Q309 81 301 74Q295 68 291.5 68.0Q288 68 283.0 73.0Q278 78 274.5 79.5Q271 81 266.5 81.0Q262 81 259 81Z" fill="#62560E"/>
</svg>