<?xml version="1.0" encoding="UTF-8"?>
<svg xmlns="http://www.w3.org/2000/svg" viewBox="0 0 369 296">
<path d="M64 235Q75 235 83.5 245.5Q92 256 92.0 268.0Q92 280 83.5 288.0Q75 296 64.0 296.0Q53 296 44.5 288.0Q36 280 36.0 268.0Q36 256 44.5 245.5Q53 235 64 235ZM131 118H123V126Q128 129 128 136L119 215L118 218L115 221L111 224Q87 232 68 233L66 227L73 170L64 155L56 170L63 227L60 233Q47 232 31 228Q20 225 17 223L11 218L1 136Q0 131 3.0 127.5Q6 124 10 124H12Q16 124 19.0 126.5Q22 129 22 133L30 205L34 206V131L25 23Q24 18 27.5 13.5Q31 9 37 9H38Q43 9 47.0 12.5Q51 16 51 21L59 119Q61 118 64.0 118.0Q67 118 70 119L77 21Q78 16 81.5 12.5Q85 9 91 9H92Q97 9 100.5 13.0Q104 17 104 23L95 131V206L98 205L106 133Q106 129 109.0 126.5Q112 124 116 124V118H108Q106 118 105.0 117.0Q104 116 104 114V48Q104 46 105.0 44.5Q106 43 108 43H131Q133 43 134.0 44.5Q135 46 135 48V114Q135 118 131 118ZM205 148V134H253V148H275L229 186L183 148ZM183 200 154 223V212H128V188H154V177ZM349 233V256H331V295H326V256H307V233H288V18H280V123H178V9H368V233ZM204 53H187V83H204ZM226 18H209V48H226ZM226 53H209V83H226ZM226 88H209V118H226ZM249 18H231V48H249ZM249 88H231V118H249ZM271 53H253V83H271ZM312 251H345V233H312ZM315 53H297V83H315ZM315 88H297V118H315ZM315 123H297V153H315ZM315 158H297V188H315ZM337 18H319V48H337ZM337 53H319V83H337ZM337 158H319V188H337ZM337 193H319V223H337ZM359 53H342V83H359ZM359 88H342V118H359ZM359 123H342V153H359ZM359 193H342V223H359Z" fill="#62560E"/>
</svg>