<?xml version="1.0" encoding="UTF-8"?>
<svg xmlns="http://www.w3.org/2000/svg" viewBox="0 0 338 301">
<path d="M23 299Q17 297 12.0 293.0Q7 289 4 284L3 283Q2 280 1.0 275.0Q0 270 0 253V121Q0 103 1.0 98.5Q2 94 4 90V89Q7 84 13.0 79.5Q19 75 26 74Q29 73 100 73H170L169 76Q167 84 171 89Q173 92 179 97L186 103Q187 103 184.5 112.0Q182 121 183.0 126.0Q184 131 187.5 134.5Q191 138 194.5 139.5Q198 141 206.0 141.5Q214 142 214 142L215 144Q216 145 213 148L190 169L184 163Q176 155 166.5 151.5Q157 148 147.0 149.0Q137 150 129.5 154.5Q122 159 116 166L113 169L48 110Q46 109 43.5 109.0Q41 109 39.0 111.5Q37 114 37.5 116.0Q38 118 71 149L100 175Q104 179 103 180L70 215Q40 249 38.5 252.0Q37 255 40.0 258.0Q43 261 47 259Q48 259 87 216L130 170Q135 165 142.5 163.0Q150 161 158.0 162.0Q166 163 172 168Q174 170 215.0 214.5Q256 259 257 259Q260 261 263.0 258.0Q266 255 265.5 252.5Q265 250 232 214L199 178L221 158L224 161Q227 164 229.5 165.0Q232 166 237 166H243L247 164L259 156L266 160Q272 164 275.0 165.0Q278 166 282 166Q295 166 301 152L303 146V266Q303 275 302 278Q299 286 293.5 291.5Q288 297 281 299Q277 300 151.5 300.0Q26 300 23 299ZM234 153Q233 153 232 151L223 129L199 128L197 126Q195 123 195.0 121.5Q195 120 198 110L200 99Q200 98 192 91L183 83Q181 81 181.0 79.0Q181 77 183.0 75.0Q185 73 192 68L201 60L198 49Q195 38 195.0 36.0Q195 34 196.5 32.5Q198 31 199 31L223 29L228 18Q232 6 234.0 5.0Q236 4 239.0 5.0Q242 6 249 10L259 16Q260 17 270.0 10.5Q280 4 282.5 4.0Q285 4 286.5 6.5Q288 9 292 18L296 28Q297 29 307.0 29.5Q317 30 319.5 31.0Q322 32 323.0 33.5Q324 35 324 38L319 58Q318 60 327.5 67.5Q337 75 337.5 76.0Q338 77 338.0 79.5Q338 82 337 83L319 98Q319 98 321 110L324 120Q324 122 323.5 124.0Q323 126 321.0 127.0Q319 128 308 128L296 129L292 140Q288 149 286.0 151.5Q284 154 281.0 153.5Q278 153 270 148Q260 141 259 141L249 148Q242 153 239.0 154.0Q236 155 234 153ZM264 111Q272 109 278.5 104.5Q285 100 288 93Q293 82 289.5 70.0Q286 58 275.5 52.0Q265 46 254.5 48.0Q244 50 236.5 58.0Q229 66 228.0 78.0Q227 90 234.5 99.5Q242 109 255 111Q260 111 264 111ZM252 97Q246 94 243 88Q241 84 241.0 79.5Q241 75 242 72Q245 65 252 62Q255 60 260.0 60.5Q265 61 268 62Q274 65 277 72Q279 75 278.5 80.0Q278 85 277 88Q274 93 268 96Q265 98 260.0 98.0Q255 98 252 97Z" fill="#62560E"/>
</svg>