<?xml version="1.0" encoding="UTF-8"?>
<svg xmlns="http://www.w3.org/2000/svg" viewBox="0 0 297 301">
<path d="M138 300Q114 296 95.5 282.0Q77 268 68 246Q65 238 63.5 230.5Q62 223 62 211Q61 192 54.5 170.5Q48 149 41 140Q37 136 37.5 133.0Q38 130 42 128Q56 117 96 111L105 109L109 106Q118 99 127 96Q159 83 187 106L192 109L201 111Q221 114 236.0 119.0Q251 124 257 129Q259 132 259.0 134.0Q259 136 256.0 140.0Q253 144 248.0 155.5Q243 167 240 179Q236 196 235 218Q234 231 230 242Q224 260 209 275Q191 294 165 299Q160 300 151.0 300.0Q142 300 138 300ZM136 227Q140 223 148.5 217.5Q157 212 162 209Q191 193 220 191Q222 191 222.5 188.0Q223 185 222.0 177.0Q221 169 219.5 167.5Q218 166 217 165H211L209 164Q207 163 206 157Q201 141 192.0 128.5Q183 116 172.5 110.0Q162 104 151.5 103.5Q141 103 131 107Q118 112 108.0 124.5Q98 137 93 154L90 162Q89 164 86.5 165.0Q84 166 82.0 165.0Q80 164 78.5 166.5Q77 169 76.0 173.0Q75 177 75.0 183.5Q75 190 75.5 191.5Q76 193 81 195Q91 201 100.5 209.5Q110 218 115 227Q119 233 121 239Q121 239 122 239ZM113 187Q110 184 112 180Q113 178 115.0 177.5Q117 177 124.5 177.0Q132 177 134.0 178.5Q136 180 136.0 183.5Q136 187 133.5 188.0Q131 189 123 189H115ZM164 188Q162 187 161.5 185.0Q161 183 161.0 181.5Q161 180 162.5 179.0Q164 178 166 177H173Q179 177 181.0 177.5Q183 178 184 180Q187 184 183 187L181 189H174Q166 189 164 188ZM68 100Q49 94 46 92Q34 86 24 76Q11 63 5 45Q2 38 1.5 33.5Q1 29 0 20V9L4 4H293L297 9L296 20Q296 31 295 37Q289 60 273 76Q263 86 251 92Q246 94 228.0 100.5Q210 107 208.5 107.0Q207 107 201 102Q192 93 183.5 88.0Q175 83 164 80Q158 79 148.5 79.0Q139 79 132.0 80.5Q125 82 115.5 86.5Q106 91 95 102Q90 107 88.0 107.0Q86 107 68 100Z" fill="#62560E"/>
</svg>