<?xml version="1.0" encoding="UTF-8"?>
<svg xmlns="http://www.w3.org/2000/svg" viewBox="0 0 275 296">
<path d="M128 295Q104 292 85.5 275.5Q67 259 61 235Q58 226 57.5 211.5Q57 197 52.5 179.5Q48 162 42 149Q39 142 37.0 140.0Q35 138 34.5 136.5Q34 135 34.5 132.0Q35 129 44 125Q59 117 89 112L97 110L101 107Q110 100 117 97Q147 84 173 107L177 110L186 112Q205 115 218.5 119.5Q232 124 237 129Q240 132 240.0 134.5Q240 137 237.0 140.5Q234 144 229.5 155.5Q225 167 223 178Q218 195 217 216Q216 228 213 239Q207 259 191.0 274.5Q175 290 153 295Q148 295 140.0 295.5Q132 296 128 295ZM151 282Q171 278 186.0 262.5Q201 247 205 226Q206 222 206.0 215.5Q206 209 206 205L205 202H202Q196 202 186.0 205.0Q176 208 167 212Q155 218 142.5 226.5Q130 235 122 244Q116 250 114 256Q113 259 110.0 259.5Q107 260 105.5 258.5Q104 257 104 256L103 251Q102 233 88 218Q81 211 72 206L70 204L69 207Q69 210 69.0 216.0Q69 222 70 226Q75 247 89 262Q99 273 112 279Q131 287 151 282ZM126 225Q143 210 164.0 200.5Q185 191 203 190Q205 190 206.0 187.0Q207 184 205.5 176.5Q204 169 202 166L201 165H195L193 164Q192 162 190 157Q186 142 177.5 129.5Q169 117 159.5 111.0Q150 105 140.0 104.5Q130 104 121 108Q110 113 100.5 125.0Q91 137 86 154L83 162Q82 164 79.5 165.0Q77 166 75.5 165.0Q74 164 72.5 166.0Q71 168 70.0 172.0Q69 176 69.0 182.5Q69 189 69.5 190.0Q70 191 75 194Q86 200 96 210Q102 216 105.5 221.5Q109 227 112 236V237ZM62 162Q65 156 70 154L73 152Q74 152 75 149Q78 139 84 129L86 124Q86 124 76 126L62 130L49 135L51 139Q56 149 60 161L61 164Q61 164 62 162ZM220 148Q222 144 224 140L226 136L225 135Q219 131 209 129L197 126Q189 124 189 125L192 130Q197 139 200 149Q201 153 202.0 153.0Q203 153 205 154Q210 156 213 162L214 164ZM105 186Q102 183 104 179Q105 177 107.0 176.5Q109 176 115.5 176.0Q122 176 124.0 178.0Q126 180 126.0 182.5Q126 185 124.0 186.5Q122 188 114 188H107ZM152 187Q150 186 149.5 184.0Q149 182 149.0 180.5Q149 179 150.5 178.0Q152 177 154 177L160 176Q166 176 168.0 176.5Q170 177 171 179Q173 183 170 186L168 188H161Q154 188 152 187ZM63 102Q46 95 42 93Q32 88 22 78Q10 65 4 48Q2 41 1.5 36.5Q1 32 0 23V13L4 9H271L275 13V23Q274 34 273 40Q268 62 253 78Q244 88 233 93Q228 96 211.5 102.0Q195 108 193.5 108.0Q192 108 187 103Q178 95 170.0 90.0Q162 85 152 82Q147 81 138.0 81.0Q129 81 122.5 82.5Q116 84 107.0 88.5Q98 93 88 103Q83 108 81.5 108.0Q80 108 63 102ZM85 90Q102 75 123 70Q128 69 137.5 69.0Q147 69 152 70Q173 75 190 90L195 95L210 90Q225 84 229 82Q241 75 249.5 64.5Q258 54 261 41Q262 37 263.0 29.5Q264 22 263.5 21.5Q263 21 243 20H32Q12 21 11.5 21.5Q11 22 12 29Q14 46 23.0 60.0Q32 74 46 82L61 88L79 95Q80 95 85 90Z" fill="#62560E"/>
</svg>