<?xml version="1.0" encoding="UTF-8"?>
<svg xmlns="http://www.w3.org/2000/svg" viewBox="0 0 250 297">
<path d="M190 295Q188 294 187 292L138 207Q137 205 137.0 201.5Q137 198 138 196Q141 189 147 189H148Q151 189 153.0 190.5Q155 192 161 200L209 274Q211 277 210.0 282.5Q209 288 206.0 291.0Q203 294 198.0 295.0Q193 296 190 295ZM195 290Q197 289 192 281Q190 276 188.5 275.0Q187 274 186.0 275.5Q185 277 185.0 278.5Q185 280 187 282Q190 289 191.5 290.0Q193 291 195 290ZM14 263Q5 261 1 251L0 248V87L1 84Q4 78 8 74H9Q11 72 16.0 71.5Q21 71 40 71H236L239 73Q245 76 248 84L250 88V247L248 251Q245 258 239 262L236 264L214 265L204 250Q204 249 218.5 249.0Q233 249 235 248Q236 247 236.5 244.0Q237 241 237 230V109H13V227Q13 241 13.5 244.0Q14 247 15 248H16Q17 249 85 249H152L161 264H29Q15 264 14 263ZM121 186Q118 185 115.5 182.0Q113 179 112.5 176.0Q112 173 112 168Q112 160 110.0 157.0Q108 154 104 153H103V152Q108 146 120.5 147.5Q133 149 138.0 154.5Q143 160 141.0 170.5Q139 181 132 185Q130 187 126.5 187.0Q123 187 121 186ZM104 59Q103 59 103 47V35H89Q75 35 74.0 34.5Q73 34 73 32V22Q73 12 74 10V9H169Q176 9 177.0 10.0Q178 11 178 22L177 31Q177 33 176.5 34.0Q176 35 174 35H147V47Q147 58 146.5 59.0Q146 60 142 60H125Q105 60 104 59Z" fill="#62560E"/>
</svg>