<?xml version="1.0" encoding="UTF-8"?>
<svg xmlns="http://www.w3.org/2000/svg" viewBox="0 0 322 296">
<path d="M62 253Q71 253 77.0 259.5Q83 266 83.0 274.5Q83 283 77.0 289.5Q71 296 62.0 296.0Q53 296 46.5 289.5Q40 283 40.0 274.5Q40 266 46.5 259.5Q53 253 62 253ZM261 253Q269 253 275.5 259.5Q282 266 282.0 274.5Q282 283 275.5 289.5Q269 296 260.5 296.0Q252 296 245.5 289.5Q239 283 239.0 274.5Q239 266 245.5 259.5Q252 253 261 253ZM292 244Q277 247 260.5 247.0Q244 247 229 244Q216 241 207.5 231.0Q199 221 200 208L204 134H221V204H226V9H250L258 130H263L271 9H295V204H300V134H317L321 208Q322 221 314.0 231.0Q306 241 292 244ZM107 147H123L111 220Q109 228 103.0 234.5Q97 241 88 243Q75 247 61.5 247.0Q48 247 35 243Q26 241 20.0 234.5Q14 228 13 220L0 147H16L32 208L39 184Q15 148 15 104H43L51 9H72L81 104H109Q109 148 84 184L91 208ZM151 294V9H172V294Z" fill="#62560E"/>
</svg>