<?xml version="1.0" encoding="UTF-8"?>
<svg xmlns="http://www.w3.org/2000/svg" viewBox="-1 0 332 288">
<path d="M27 287Q18 286 11.0 280.0Q4 274 1 265Q0 260 0.0 180.0Q0 100 1 96Q3 89 8.5 83.0Q14 77 22 74Q25 73 36 73H181L189 67Q196 61 196 60L193 49Q191 41 191.0 38.0Q191 35 194.0 34.0Q197 33 205 33L217 32Q218 32 219 30L223 21Q227 11 228.5 9.5Q230 8 233.0 9.0Q236 10 244 14L254 20Q254 20 263.0 14.5Q272 9 275.0 8.5Q278 8 280.0 9.5Q282 11 286 22L290 32L313 33Q314 33 315.5 35.0Q317 37 317 38L312 59Q312 60 320 67Q327 73 329.0 75.0Q331 77 331.0 78.5Q331 80 329 82L321 89Q312 96 312 97L314 108Q317 117 317 119Q317 125 309 125H297V193Q297 260 296 263Q295 271 289.5 277.0Q284 283 276 286L272 288H151Q30 288 27 287ZM273 274Q280 271 283 265Q284 262 285 254V138L282 146Q282 146 279.5 148.0Q277 150 275.5 150.0Q274 150 264 143L254 137L235 148Q233 149 231.0 149.0Q229 149 227 147L226 145L196 171Q195 172 199 176L255 236Q260 241 260.0 243.0Q260 245 258.0 247.0Q256 249 254 249H253Q251 249 247 244L206 202Q170 164 167 162Q160 157 150 157Q136 156 127 164L48 246Q46 249 43.0 249.0Q40 249 38.0 246.0Q36 243 37.0 241.5Q38 240 70 206L102 172Q102 171 70 143L46 122Q39 116 38.0 113.5Q37 111 38 109Q39 107 41.5 106.0Q44 105 46 107L110 163L116 158Q130 144 148 144Q158 144 166.0 147.5Q174 151 182 159L187 163L220 133Q221 133 220 130L218 126Q217 126 206 125L194 124L192 122Q191 120 191 119L196 97L181 85H38Q27 85 25 86Q18 89 15 94L13 98V177Q12 255 12.5 260.0Q13 265 17.0 269.0Q21 273 25.0 274.0Q29 275 149 275H255Q270 275 273 274ZM254 124Q256 124 264 129L273 134Q273 134 276.5 125.5Q280 117 281.5 116.0Q283 115 293 114L303 113Q303 113 300.5 104.0Q298 95 298.5 93.0Q299 91 307 85L315 79L312 77Q300 67 299.0 65.5Q298 64 299 63L303 46Q303 45 302 45L294 44Q284 44 282.0 43.0Q280 42 276.5 33.0Q273 24 272 24L264 29Q257 34 255.0 34.0Q253 34 244.5 29.0Q236 24 235 24L231 34Q228 41 226.5 42.5Q225 44 217 44L205 45L207 53Q210 65 209 67L193 80L199 84Q206 89 207.5 91.0Q209 93 209.0 95.5Q209 98 207 106L205 114L215 115Q225 115 226.5 116.0Q228 117 230 121L235 135L244 130Q252 124 254 124ZM247 108Q235 105 228.5 95.0Q222 85 224.0 74.0Q226 63 234.5 56.0Q243 49 255.0 49.0Q267 49 275.5 57.5Q284 66 285.0 77.5Q286 89 278 98Q273 104 264.0 107.0Q255 110 247 108ZM263 94Q270 90 272.0 83.5Q274 77 270.0 70.0Q266 63 257.5 61.5Q249 60 242.5 65.5Q236 71 236.0 79.0Q236 87 241.5 91.5Q247 96 255 96Q260 96 263 94Z" fill="#62560E"/>
</svg>